<?xml version="1.0" encoding="iso-8859-1"?>
<!DOCTYPE svg PUBLIC "-//W3C//DTD SVG 1.1//EN" "http://www.w3.org/Graphics/SVG/1.1/DTD/svg11.dtd">
<svg 
 version="1.1" xmlns="http://www.w3.org/2000/svg" xmlns:xlink="http://www.w3.org/1999/xlink" x="0px" y="0px" width="512px"
	 height="512px" viewBox="0 0 512 512" enable-background="new 0 0 512 512" xml:space="preserve"
><g id="b75708d097f2188dff6617b0f00c32c6"><g></g><g fill="#d9412d"><path display="inline" d="M423.064,234.227c2.079-7.369,3.269-15.108,3.269-23.139c0-47.037-38.129-80.908-85.166-80.908
		c-15.782,0-30.512,3.884-43.183,10.729c-22.968-32.674-61.808-53.313-105.859-53.313c-70.554,0-127.75,52.938-127.75,123.491
		c0,8.999,0.94,17.773,2.711,26.249C28.466,249.691,0.5,285.866,0.5,328.591c0,52.918,42.895,95.813,95.813,95.813l320.174-0.398
		c52.472,0,95.014-42.542,95.014-95.015C511.5,278.73,472.468,237.607,423.064,234.227z M416.448,394.196l-320.136,0.399
		c-36.396,0-66.004-29.609-66.004-66.005c0-28.826,18.431-54.09,45.86-62.864c14.544-4.651,23.219-19.543,20.096-34.488
		c-1.38-6.605-2.082-13.384-2.082-20.15c0-52.532,43.022-93.683,97.942-93.683c33.125,0,63.582,15.194,81.474,40.645
		c5.76,8.192,14.976,12.669,24.406,12.669c4.804,0,9.661-1.16,14.147-3.584c8.654-4.675,18.688-7.146,29.015-7.146
		c31.559,0,55.358,21.967,55.358,51.1c0,4.931-0.724,9.991-2.15,15.044c-2.437,8.642-0.849,17.921,4.32,25.261
		c5.174,7.342,13.379,11.96,22.336,12.571c34.013,2.328,60.66,30.894,60.66,65.026C481.691,364.945,452.44,394.196,416.448,394.196z
		 M248.44,347.209l-2.62,23.566c-36.229-4.271-64.341-35.064-64.341-72.441c0-16.181,5.286-31.105,14.206-43.198l-8.492-8.492
		c-4.969-4.961-3.318-9.664,3.66-10.438l32.665-3.627c6.978-0.777,12.056,4.3,11.278,11.278l-3.626,32.665
		c-0.778,6.978-5.473,8.629-10.438,3.659l-7.976-7.972c-4.774,7.577-7.56,16.521-7.56,26.124
		C205.195,323.455,224.108,344.231,248.44,347.209z M330.521,295.016c0,16.181-5.285,31.105-14.201,43.194l8.492,8.491
		c4.965,4.966,3.318,9.665-3.66,10.438l-32.665,3.635c-6.978,0.773-12.056-4.305-11.282-11.282l3.631-32.665
		c0.773-6.982,5.477-8.625,10.438-3.664l7.972,7.972c4.778-7.572,7.564-16.518,7.564-26.119c0-25.321-19.212-46.23-43.813-48.95
		l2.619-23.566C302.118,226.512,330.521,257.439,330.521,295.016z"></path></g></g></svg>